<svg t="1701563405827" class="icon" viewBox="0 0 1024 1024" version="1.1" xmlns="http://www.w3.org/2000/svg" p-id="9961" width="200" height="200"><path d="M815.917 376.604c0.432-11.23 0.864-21.594 1.296-30.232 6.478-100.197 17.707-175.345-45.348-261.29-56.577-78.172-228.035-79.9-255.244-79.9h-9.07c-26.345-0.431-198.667 1.296-255.676 79.468-63.055 86.377-51.394 161.093-45.348 261.29 0.432 9.07 0.864 19.003 1.296 30.232-27.209 28.936-79.467 60.464-58.305 85.513 16.412 19.003 38.006-7.774 58.737-19.434 0 43.188-0.864 87.672-0.864 117.04 0 0 1.296 226.308-2.16 268.633-3.454 42.325 38.438 157.206 179.233 182.256 71.261 12.524 177.505 10.365 256.972-3.455 128.27-21.595 174.05-117.473 177.073-167.572 4.319-68.67-2.16-279.862-2.16-279.862 0-28.936-0.863-73.42-0.863-117.04 20.73 11.66 42.756 34.118 58.736 15.116 21.162-24.618-31.096-52.259-58.305-80.763z" fill="#EE751B" p-id="9962"></path><path d="M779.207 390.856c5.615-86.377 15.548-150.728-39.301-224.58-49.235-66.51-198.668-68.238-221.99-68.238h-7.773c-22.89-0.432-172.754 1.296-222.421 68.238-54.85 74.284-44.916 138.635-39.302 224.58 0.432 7.774 0.864 158.502 0.864 183.551 0 0-3.023 107.108-0.432 205.578 2.16 77.74-16.843 48.803-13.82 105.38 1.727 27.64 37.574 82.49 159.797 107.971 72.125 14.684 207.737 12.957 284.613-20.73 92.855-41.03 114.45-80.331 108.403-108.835-5.615-26.345-9.933-24.618-8.638-72.125 2.16-86.81-0.432-217.239-0.432-217.239 0-25.049 0-175.777 0.432-183.55z" fill="#F29118" p-id="9963"></path><path d="M237.623 152.024c11.23-33.687 42.757-105.812 156.774-118.769 49.235-5.614 79.467-8.638 121.792-8.638 38.87 0 145.114 6.479 185.279 27.641 61.76 32.823 57.872 48.371 76.012 82.922 10.797 20.299 24.617 69.966 23.753 117.905-0.432 23.322-17.275 23.753-16.411 67.374 0.432 33.255-89.832-75.58-256.972-71.693-76.444 2.16-264.314 23.754-282.453 90.264-2.591 9.501 7.342-15.116-19.003-62.192-8.638-15.98 4.75-105.811 11.23-124.814z" fill="#F29118" p-id="9964"></path><path d="M249.284 821.878V401.653s41.461 60.464 41.461 101.925v225.444s-28.504 78.172-41.461 92.856z m528.628-4.32V397.335S736.45 457.798 736.45 499.26v225.445s28.504 78.17 41.46 92.855z" fill="#BFE4F3" p-id="9965"></path><path d="M634.094 34.983s2.591 63.055 123.519 90.696c0 0-3.455-80.331-123.52-90.696z m-235.81 0s-2.59 63.055-123.519 90.696c0 0 3.887-80.331 123.52-90.696z" fill="#F2D94B" p-id="9966"></path><path d="M733.86 434.477H298.518s-64.783-91.56-26.345-124.815 100.197-56.145 263.45-56.145c151.16 0 225.876 46.211 236.241 64.782S742.93 405.54 733.86 434.477z" fill="#EE761C" p-id="9967"></path><path d="M731.268 445.706H301.542s-63.919-90.696-25.913-123.52c38.006-32.823 98.902-55.713 259.995-55.713 149.432 0 222.853 45.78 233.65 63.92 10.365 19.002-28.936 87.24-38.006 115.313z" fill="#BFE4F3" p-id="9968"></path><path d="M545.99 436.636h-57.442c-4.75 0-8.637-3.023-9.07-6.91l-0.863-7.342c-0.432-4.319 1.728-6.91 9.07-6.91h58.304c7.774 0 9.502 2.591 9.07 6.91l-0.432 7.342c0 3.887-3.887 6.91-8.638 6.91z" fill="#A5DAEA" p-id="9969"></path><path d="M518.348 445.274h-5.614l-1.296-9.07h5.615z" fill="#A5DAEA" p-id="9970"></path><path d="M365.03 323.05l-95.016 76.876c-4.75-6.479-9.07-12.957-13.388-20.299l108.403-87.673v31.096z m0.431 31.528l-91.56 76.444c13.82 13.82 28.937 24.185 45.348 30.231l46.212-39.733v-66.942z m0.432 97.606v2.591h-3.023l3.023-2.591z m40.165-193.485h38.438L365.03 323.05v-30.664l41.03-33.687z m-40.165 196.076h34.983l243.151-196.94H605.59L365.461 452.185l0.432 2.591z m-0.432-33.255l201.69-163.253-83.353 0.432-118.337 95.879v66.942z" fill="#FFFFFF" p-id="9971"></path><path d="M311.907 744.57h399.926s62.623 82.49 28.073 112.29c-34.551 29.8-94.151 54.85-240.992 54.85-136.044 0-215.943-45.78-225.444-62.624-9.934-16.843 30.232-78.603 38.437-104.516z" fill="#EE761C" p-id="9972"></path><path d="M312.771 735.069H710.97s57.873 82.058 23.322 111.858c-34.55 29.8-89.832 50.53-235.81 50.53-135.611 0-210.76-41.46-220.26-58.304-9.502-16.843 26.344-78.603 34.55-104.084z" fill="#BFE4F3" p-id="9973"></path></svg>