<svg t="1701563364462" class="icon" viewBox="0 0 1024 1024" version="1.1" xmlns="http://www.w3.org/2000/svg" p-id="8951"
        width="200" height="200">
        <path
            d="M634.826105 890.772211c-7.868632 42.549895-50.391579 67.745684-124.442947 67.745684s-116.601263-22.042947-124.469895-66.15579v-1.589894c-1.562947-11.021474-3.152842-28.348632-7.868631-103.962948h7.868631s67.745684 4.715789 124.469895 4.71579c56.697263 0 124.442947-4.715789 124.442947-4.71579h7.868632c-3.152842 75.614316-6.278737 92.941474-7.868632 103.962948zM548.190316 1010.526316c-12.611368 3.152842-25.222737 3.152842-37.807158 6.305684-12.611368 0-25.222737 0-37.807158-3.152842-12.611368-1.562947-25.222737-6.305684-36.244211-11.021474-7.868632-4.715789-17.327158-9.431579-25.195789-14.174316-4.742737-1.589895-11.048421-4.742737-17.354105-6.305684h-1.562948c-15.764211-7.868632-33.091368-15.764211-37.807158-18.917052-7.868632-4.715789-15.764211-9.431579-18.917052-23.605895-1.562947-1.589895-1.562947-6.305684-3.152842-9.458526 0-4.742737-1.562947-7.895579-3.125895-12.611369-4.742737-15.764211-9.458526-33.091368-11.048421-47.265684-1.562947-9.431579-3.152842-14.174316-4.71579-18.890105a204.261053 204.261053 0 0 1-4.715789-28.375579c-1.589895-12.584421-1.589895-23.632842-1.589895-36.217263 0-12.611368 0-26.785684 1.589895-45.702737 0-18.890105 3.125895-28.348632 4.715789-36.217263 1.562947-7.895579 3.152842-14.174316 3.152843-28.375579v-50.391579c-1.589895-37.807158-1.589895-89.815579-1.589895-143.36v-80.357053l-15.737263 6.305684a19.482947 19.482947 0 0 1-22.069895-6.305684 29.210947 29.210947 0 0 1-3.152842-11.021474c0-3.152842 0-7.868632 3.152842-11.048421 6.305684-7.868632 22.069895-22.042947 34.654316-31.501473 1.589895 0 1.589895-1.562947 3.152842-1.562948v-63.002947c0-6.305684 0-15.764211-1.562948-26.785684-1.589895-17.327158-4.715789-39.397053-4.715789-59.877053 0-29.911579 4.715789-63.002947 9.431579-74.051368 0-1.562947 0-3.125895 1.589895-6.278737 3.152842-12.611368 9.431579-29.938526 25.195789-44.112842 17.327158-14.174316 55.134316-34.654316 75.614316-45.702737 9.458526-4.715789 26.785684-14.174316 89.815579-14.174316 64.592842 0 80.330105 9.458526 89.788631 14.174316 22.042947 11.048421 59.850105 31.528421 75.614316 45.702737s22.069895 33.064421 26.785684 42.522947c0 1.589895 1.562947 4.742737 1.562948 6.305684 6.305684 12.611368 9.458526 44.112842 9.458526 74.051369 0 18.890105-3.152842 42.522947-4.715789 59.850105 0 12.611368-1.589895 22.069895-1.589895 26.785684v63.029895c1.589895 0 1.589895 1.562947 3.152842 1.562947 12.611368 11.048421 28.375579 23.632842 34.654316 31.528421a18.917053 18.917053 0 0 1 0 22.042948c-6.278737 7.868632-14.174316 9.431579-22.042948 6.305684l-15.76421-6.305684v80.330105c0 53.571368-1.562947 105.552842-1.562947 143.36v50.418526c0 14.174316 1.562947 20.48 3.152842 28.348632 1.562947 7.895579 3.152842 17.327158 4.715789 36.24421 1.589895 39.370105 1.589895 56.724211-1.562947 81.92 0 14.174316-3.152842 22.042947-4.742737 28.348632-1.562947 4.742737-3.152842 9.458526-4.71579 18.917053-3.152842 18.890105-9.431579 44.112842-14.174315 58.287157-1.589895 4.715789-3.152842 7.868632-3.152842 9.431579-3.152842 14.201263-11.048421 18.917053-18.917053 23.65979-4.715789 3.125895-20.48 12.584421-37.807158 18.890105h-1.562947a76.8 76.8 0 0 1-17.327158 6.305684c-7.895579 6.305684-15.764211 9.431579-25.222737 14.174316-11.021474 4.715789-23.632842 7.868632-36.217263 11.048421zM633.263158 123.553684a362.442105 362.442105 0 0 0-18.917053-53.544421c9.431579 17.327158 15.764211 34.654316 22.069895 51.981474a241.987368 241.987368 0 0 1 15.737263 55.134316c6.305684 18.917053 9.431579 36.244211 14.174316 55.134315 4.742737 18.917053 7.895579 36.244211 11.048421 55.134316 3.125895 14.201263 6.278737 28.375579 7.868632 36.244211l1.562947 1.589894V282.677895c0-6.305684 1.589895-15.764211 3.152842-28.348632 3.152842-17.327158 4.742737-39.397053 4.742737-58.287158 0-31.528421-4.742737-58.287158-7.895579-66.182737 0-1.562947-1.562947-4.715789-3.152842-7.868631-3.152842-11.048421-7.868632-25.195789-18.890105-34.654316-11.048421-9.431579-37.807158-25.222737-72.488421-45.702737-7.868632-3.125895-22.042947-11.021474-81.92-11.021473-59.850105 0-74.024421 7.895579-81.92 12.611368-34.654316 18.890105-61.44 34.654316-70.871579 42.522947-12.611368 11.048421-17.327158 25.222737-20.48 36.244211-1.589895 3.152842-3.152842 6.305684-1.589895 6.305684-3.152842 6.305684-7.868632 34.654316-7.868632 66.15579 0 18.917053 3.152842 40.96 4.71579 58.287157 0 12.611368 1.589895 22.069895 1.589894 28.375579v42.522948s0-1.562947 1.562948-1.562948c1.589895-7.895579 4.742737-22.069895 7.895579-36.24421 3.152842-18.917053 6.305684-36.244211 11.021473-55.134316 4.715789-18.917053 9.431579-36.244211 14.174316-55.134316 4.715789-17.327158 11.048421-36.244211 17.327158-53.571368 7.868632-17.327158 14.174316-36.244211 23.632842-52.008421a362.442105 362.442105 0 0 0-18.890105 53.571368c-4.742737 18.917053-9.458526 36.244211-12.611368 55.161263-4.742737 17.327158-6.305684 36.217263-9.458527 55.134316-1.562947 12.584421-3.152842 23.632842-4.715789 36.217263C400.087579 246.433684 453.658947 232.286316 511.946105 232.286316c58.287158 0 111.831579 14.174316 148.07579 37.807158-1.562947-12.584421-3.125895-23.632842-4.71579-36.217263-3.152842-18.917053-6.305684-36.244211-9.431579-55.134316A565.355789 565.355789 0 0 0 633.263158 123.553684z m96.094316 267.829895c-3.152842-4.715789-11.048421-12.611368-23.632842-20.48v12.611368l23.632842 7.868632c-1.589895 0 0 0 0 0z m-437.975579 0s1.589895 0 0 0l23.632842-9.431579v-12.638316c-12.584421 9.458526-20.48 17.354105-23.632842 22.069895z m185.909894 598.635789c11.048421 3.152842 22.042947 4.742737 29.911579 3.152843a122.88 122.88 0 0 0 34.681264-4.71579c11.021474-1.589895 22.042947-4.742737 33.091368-9.431579 4.715789-1.616842 11.021474-4.742737 15.737263-6.332631l9.431579-4.71579h1.616842c3.125895-1.589895 4.715789-1.589895 6.278737-3.152842 11.048421-4.715789 20.48-9.431579 31.528421-12.611368l1.562947-1.562948c1.562947-4.742737 1.562947-15.764211 1.562948-34.654316v-129.185684h4.742737c6.305684-1.589895 12.584421 4.715789 12.584421 11.021474V939.627789c1.589895 0 1.589895-1.589895 1.589894-1.589894 7.868632-11.048421 12.611368-23.632842 14.174316-26.785684 4.715789-14.174316 7.868632-31.501474 6.305684-44.112843 1.562947-11.021474 3.152842-17.327158 4.71579-22.042947 1.589895-6.305684 3.152842-12.611368 4.742737-25.222737 1.562947-23.605895 3.152842-40.96 0-78.767158-1.589895-18.890105-3.152842-26.758737-4.742737-34.654315a137.916632 137.916632 0 0 1-3.152842-31.501474v-50.391579c1.589895-37.834105 1.589895-89.815579 1.589895-143.36V353.549474l-3.152843-3.152842c-3.152842 26.785684-7.868632 80.330105-12.611368 113.448421 0 0 0 1.562947-1.562947 1.562947h-3.152842c-31.528421-18.917053-83.509895-37.807158-157.534316-37.807158-72.488421 0-124.469895 18.890105-157.534316 37.807158H346.543158c-1.589895 0-1.589895 0-1.589895-1.589895-3.152842-34.654316-9.431579-86.635789-12.611368-115.011368l-3.125895 3.152842v127.622737c0 53.544421 1.562947 105.552842 1.562947 143.36v50.391579c0 15.764211-1.562947 22.069895-3.152842 31.528421-1.562947 7.868632-3.152842 17.327158-4.715789 34.654316-1.589895 37.807158-1.589895 55.134316 0 78.767157 1.562947 14.174316 3.152842 18.917053 4.715789 25.19579 1.589895 4.742737 3.152842 11.048421 4.71579 22.069895 3.152842 12.611368 7.895579 29.911579 11.048421 44.112842 0 1.562947 6.305684 15.737263 14.174316 26.785684l1.562947 1.562947v-138.64421c0-7.868632 6.305684-12.584421 14.174316-12.584421h3.152842v129.185684c1.589895 20.48 1.589895 31.501474 1.589895 36.217263 1.562947 0 1.562947 1.589895 3.152842 1.589895 11.021474 4.715789 20.48 7.868632 29.911579 12.584421 3.152842 1.589895 4.742737 1.589895 6.305684 3.152842h1.589895l9.431579 4.742737c4.742737 1.562947 11.048421 4.715789 15.76421 6.305684l33.091368 9.431579z m157.534316-215.821473c-1.562947 0-66.155789 3.152842-122.88 3.152842-56.724211 0-124.442947-3.152842-124.442947-3.152842l-14.201263-1.562948c-7.868632-1.589895-12.584421-6.305684-12.584421-12.611368 0-17.327158-1.589895-40.96-1.589895-70.871579-1.562947-91.405474-4.715789-157.561263-9.431579-201.674105 0-3.152842 1.562947-6.305684 4.715789-7.868632 33.091368-18.917053 83.482947-36.244211 155.971369-36.24421 72.461474 0 122.88 18.917053 155.944421 36.24421a8.650105 8.650105 0 0 1 4.742737 7.868632c-4.742737 44.112842-7.895579 110.268632-7.895579 201.647158-1.562947 29.938526-1.562947 53.571368-1.562948 70.898526a13.554526 13.554526 0 0 1-12.611368 12.611368l-14.174316 1.562948z"
            fill="#404351" p-id="8952"></path>
    </svg>