<svg t="1701567803203" class="icon" viewBox="0 0 1024 1024" version="1.1" xmlns="http://www.w3.org/2000/svg" p-id="10107" width="200" height="200"><path d="M766.631111 371.537778l-18.897778-7.235556-0.426666 0.764445-12.657778 22.151111 13.084444 8.444444 5.813334 14.471111c30.417778 21.368889 69.813333 37.386667 100.355555 31.36 5.475556-11.786667 0.746667-25.137778-9.617778-37.013333-10.186667-15.093333-27.928889-26.453333-50.897777-30.364444a79.271111 79.271111 0 0 0-26.755556-2.577778z" fill="#FFFFFF" p-id="10108"></path><path d="M763.626667 379.431111l-12.177778-4.657778-5.528889 9.671111 8.622222 5.564445 5.866667 14.613333c15.075556 10.328889 32.231111 19.217778 49.226667 24.515556 13.191111 4.124444 26.204444 6.062222 37.831111 4.782222a19.111111 19.111111 0 0 0-0.426667-8.053333c-1.351111-5.226667-4.586667-10.631111-9.137778-15.84l-0.444444-0.515556-0.213334-0.32a58.044444 58.044444 0 0 0-18.542222-17.191111 77.511111 77.511111 0 0 0-26.737778-9.564444l-0.728888-0.16a79.591111 79.591111 0 0 0-12.462223-2.257778 63.111111 63.111111 0 0 0-11.431111-0.088889l-1.973333 0.177778-1.742222-0.675556z m-12.871111-23.04l17.208888 6.577778a78.4 78.4 0 0 1 12.408889 0.266667c4.871111 0.462222 9.795556 1.333333 14.648889 2.595555a94.222222 94.222222 0 0 1 32.355556 11.697778c9.831111 5.848889 17.831111 13.333333 23.697778 21.902222 5.991111 7.004444 10.311111 14.524444 12.302222 22.204445a33.955556 33.955556 0 0 1-1.831111 23.36l-1.831111 3.946666-4.213334 0.835556c-15.715556 3.093333-33.315556 0.995556-50.862222-4.497778-19.502222-6.097778-39.075556-16.391111-55.946667-28.248889L746.666667 415.591111l-5.742223-14.293333-17.564444-11.342222 20.657778-36.16 6.737778 2.595555z" fill="#333333" p-id="10109"></path><path d="M267.111111 369.671111l18.897778-7.217778 0.426667 0.764445 12.657777 22.133333-13.084444 8.462222-5.813333 14.453334c-30.4 21.386667-69.813333 37.404444-100.355556 31.36-5.475556-11.768889-0.746667-25.137778 9.617778-37.013334 10.186667-15.075556 27.928889-26.453333 50.897778-30.346666a79.288889 79.288889 0 0 1 26.755555-2.595556z" fill="#FFFFFF" p-id="10110"></path><path d="M265.777778 361.137778l23.964444-9.173334 20.657778 36.16-17.564444 11.324445-5.742223 14.311111-2.026666 1.422222c-16.871111 11.875556-36.462222 22.168889-55.946667 28.248889-17.546667 5.493333-35.164444 7.608889-50.862222 4.497778l-4.231111-0.835556-1.831111-3.928889a34.133333 34.133333 0 0 1-1.831112-23.377777c1.991111-7.662222 6.311111-15.2 12.302223-22.186667 5.866667-8.568889 13.866667-16.071111 23.697777-21.92a93.955556 93.955556 0 0 1 32.373334-11.697778c4.835556-1.226667 9.76-2.115556 14.631111-2.595555a78.4 78.4 0 0 1 12.408889-0.248889z m16.497778 11.804444l-13.92 5.333334-1.973334-0.195556a60.071111 60.071111 0 0 0-11.431111 0.106667 79.893333 79.893333 0 0 0-12.462222 2.24l-0.728889 0.177777a77.28 77.28 0 0 0-26.737778 9.546667c-7.751111 4.622222-14.008889 10.506667-18.542222 17.208889l-0.213333 0.284444-0.444445 0.515556c-4.551111 5.208889-7.786667 10.631111-9.137778 15.857778-0.711111 2.72-0.888889 5.44-0.426666 8.035555 11.626667 1.297778 24.64-0.64 37.831111-4.764444 16.977778-5.315556 34.151111-14.204444 49.226667-24.533333l5.884444-14.613334 8.604444-5.564444-5.528888-9.635556z" fill="#333333" p-id="10111"></path><path d="M280.586667 337.191111l5.671111-122.382222c45.742222-141.333333 424.177778-143.697778 463.324444-0.711111l7.573334 121.635555-4.746667 254.151111 7.555555 232c-13.457778 44.035556-30.204444 76.373333-92.817777 95.982223l-148.746667 5.795555-149.688889-5.795555c-57.528889-15.555556-81.048889-58.133333-94.364444-97.244445l10.026666-230.737778-3.786666-252.693333z" fill="#FFFFFF" p-id="10112"></path><path d="M272.16 336.835556l5.742222-123.52 0.337778-1.066667c15.591111-48.177778 66.364444-80.96 129.564444-98.24 37.528889-10.275556 79.537778-15.146667 121.031112-14.542222 41.582222 0.586667 82.72 6.631111 118.453333 18.186666 55.413333 17.955556 98.133333 49.262222 110.435555 94.24l0.248889 0.906667 7.644445 122.453333v0.64L760.888889 589.777778l7.573333 233.226666-0.391111 1.333334c-7.04 23.004444-15.004444 43.04-29.635555 60.195555-14.702222 17.226667-35.768889 31.075556-68.728889 41.422223l-1.031111 0.32-149.955556 5.848888h-0.604444l-150.737778-5.831111-0.835556-0.231111c-30.631111-8.284444-52.248889-23.822222-68.017778-42.542222-15.573333-18.488889-25.226667-39.804444-32.16-60.177778l-0.497777-1.475555 10.097777-232.231111-3.786666-252.337778v-0.462222z m22.488889-120.444445l-5.617778 121.048889 3.786667 252.337778v0.462222L282.844444 819.377778c6.328889 18.293333 15.022222 37.226667 28.533334 53.28 13.564444 16.071111 32.213333 29.493333 58.684444 36.817778l148.337778 5.724444 147.235556-5.724444c29.031111-9.244444 47.377778-21.244444 59.928888-35.928889 12.48-14.631111 19.608889-32.32 25.92-52.782223l-7.484444-230.613333v-0.391111l4.728889-253.671111-7.52-120.622222c-10.951111-38.346667-49.226667-65.582222-99.075556-81.742223-34.151111-11.057778-73.6-16.835556-113.493333-17.404444-40-0.551111-80.391111 4.106667-116.408889 13.955556-57.528889 15.733333-103.537778 44.551111-117.582222 86.115555z" fill="#333333" p-id="10113"></path><path d="M333.973333 335.36c65.244444-52.231111 292.284444-59.982222 368.853334 0l-46.115556 126.631111a729.724444 729.724444 0 0 0-277.511111 0l-45.226667-126.631111zM319.804444 377.6l9.582223 377.048889c0.995556 9.706667 3.413333 16.337778 8.622222 17.102222 11.84-6.133333 21.511111-30.684444 29.92-65.848889l-4-164.142222c-9.244444-58.773333-25.031111-112.693333-44.124445-164.16z" fill="#5791F4" p-id="10114"></path><path d="M329.528889 431.822222l8.195555 322.328889c0.266667 2.471111 0.604444 4.657778 1.066667 6.435556 2.56-3.217778 5.12-7.875556 7.715556-13.777778 4.711111-10.773333 9.031111-24.96 13.048889-41.671111l-3.964445-162.577778a769.493333 769.493333 0 0 0-18.151111-83.715556c-2.524444-9.12-5.155556-18.133333-7.911111-27.022222z m-8.497778 323.004445l-10.862222-426.968889 17.511111 47.2a960.426667 960.426667 0 0 1 26.008889 79.946666 778.844444 778.844444 0 0 1 18.524444 85.6l0.053334 0.32c1.315556 55.235556 2.684444 110.488889 4.053333 165.724445l-0.231111 0.924444c-4.32 18.08-8.977778 33.44-14.062222 45.066667-5.653333 12.924444-12.231111 21.884444-19.946667 25.884444l-2.506667 1.297778-2.826666-0.408889c-5.777778-0.835556-9.742222-4.302222-12.284445-9.795555-1.777778-3.786667-2.808889-8.64-3.377778-14.257778l-0.053333-0.533333zM722.844444 378.897778c-24.817778 73.973333-44.302222 148.248889-51.484444 223.146666l0.551111 24.373334-0.035555 78.88c4.871111 35.271111 13.351111 59.591111 27.057777 67.964444 13.831111-5.333333 17.333333-84.231111 19.875556-169.937778l4.035555-224.426666z" fill="#5791F4" p-id="10115"></path><path d="M713.475556 436.302222a1114.133333 1114.133333 0 0 0-14.826667 55.484445c-8.764444 36.728889-15.36 73.564444-18.915556 110.488889l0.533334 23.982222-0.035556 78.524444c2.364444 16.871111 5.546667 31.075556 9.724445 41.937778 2.488889 6.417778 5.226667 11.537778 8.284444 15.235556 2.4-7.128889 4.533333-22.986667 6.524444-44.195556 2.933333-31.306667 4.444444-72.177778 5.688889-114.648889l3.022223-166.808889z m-31.146667 52.142222a1300.924444 1300.924444 0 0 1 32.533333-111.875555l17.333334-51.591111c-1.671111 92.604444-5.013333 186.151111-5.013334 278.56-1.28 43.217778-2.791111 84.657778-5.706666 115.573333-3.182222 33.955556-8.924444 57.333333-19.342223 61.333333l-4.071111 1.582223-3.68-2.257778c-8.444444-5.155556-15.057778-14.648889-20.124444-27.786667-4.657778-12.088889-8.142222-27.537778-10.666667-45.706666l-0.071111-0.497778 0.053333-79.235556-0.551111-24.764444 0.035556-0.408889c3.608889-37.831111 10.328889-75.448889 19.271111-112.924445z" fill="#5791F4" p-id="10116"></path><path d="M311.626667 596.088889l0.764444 14.204444 64.817778 11.484445-1.226667-12.142222z" fill="#333333" p-id="10117"></path><path d="M311.751111 596.231111l0.746667 13.955556 64.568889 11.431111-1.191111-11.875556-64.124445-13.511111z m0.515556 14.08l-0.782223-14.4c21.546667 4.497778 43.111111 9.013333 64.622223 13.617778l1.262222 12.391111c-21.688889-3.875556-43.395556-7.751111-65.102222-11.502222v-0.106667zM661.848889 627.217778v-14.524445l67.644444-15.573333 0.48 15.715556z" fill="#333333" p-id="10118"></path><path d="M661.724444 627.217778v-14.613334c22.595556-5.28 45.262222-10.435556 67.893334-15.626666l0.48 15.964444c-22.808889 4.764444-45.6 9.6-68.391111 14.435556v-0.16z m0.248889-14.417778v14.257778l67.875556-14.328889-0.462222-15.448889-67.413334 15.52z" fill="#333333" p-id="10119"></path><path d="M375.84 780.711111c-53.173333 77.6-41.031111 102.257778 74.275556 108.906667 35.484444 2.062222 115.431111 4.16 148.675555 0.373333s56.248889-6.915556 65.155556-11.146667c48.302222-23.004444 19.893333-69.084444-1.262223-99.644444 0 0-63.057778 19.875556-140.942222 17.297778-77.866667-2.595556-90.933333-2.542222-108.728889-5.884445-17.813333-3.36-21.795556-4.462222-21.795555-4.462222l-15.377778-5.44z" fill="#5791F4" p-id="10120"></path><path d="M433.493333 155.857778c-3.857778-14.862222-32-0.924444-44.071111 4.248889-6.826667 2.933333-13.297778 6.008889-19.342222 9.173333-75.022222 39.288889-87.128889 91.875556 28.96 26.382222 0 0 39.36-20.853333 34.453333-39.804444zM600.817778 155.857778c3.875556-14.862222 32-0.924444 44.071111 4.248889 9.475556 4.071111 18.222222 8.426667 26.186667 12.888889 68.8 38.737778 76.675556 86.115556-35.804445 22.666666 0.017778 0-39.36-20.853333-34.453333-39.804444z" fill="#333333" p-id="10121"></path></svg>