<svg t="1701568073120" class="icon" viewBox="0 0 1024 1024" version="1.1" xmlns="http://www.w3.org/2000/svg" p-id="11161" width="200" height="200"><path d="M677.9 874.6v-106c0-3.1 2.7-5.6 5.9-5.6h11.8c3.3 0 5.9 2.5 5.9 5.6v106c0 3.1-2.7 5.6-5.9 5.6h-11.8c-3.2-0.1-5.9-2.6-5.9-5.6z m-355.5 0v-106c0-3.1 2.7-5.6 5.9-5.6h11.8c3.3 0 5.9 2.5 5.9 5.6v106c0 3.1-2.7 5.6-5.9 5.6h-11.8c-3.2-0.1-5.9-2.6-5.9-5.6z" fill="#3E3A39" p-id="11162"></path><path d="M680.1 874.6v-106c0-2 1.7-3.6 3.8-3.6h11.8c2.1 0 3.8 1.6 3.8 3.6v106c0 2-1.7 3.6-3.8 3.6h-11.8c-2.1-0.1-3.8-1.7-3.8-3.6zM324.5 874.6v-106c0-2 1.7-3.6 3.8-3.6h11.8c2.1 0 3.8 1.6 3.8 3.6v106c0 2-1.7 3.6-3.8 3.6h-11.8c-2.1-0.1-3.8-1.7-3.8-3.6z" fill="#44444B" p-id="11163"></path><path d="M689.6 291.9V177.4c0-3.3 2.7-6 6-6h12c3.3 0 6 2.7 6 6v114.5c0 3.3-2.7 6-6 6h-12c-3.3 0.1-6-2.6-6-6z m-379.2 0V177.4c0-3.3 2.7-6 6-6h12c3.3 0 6 2.7 6 6v114.5c0 3.3-2.7 6-6 6h-12c-3.4 0.1-6-2.6-6-6z" fill="#3E3A39" p-id="11164"></path><path d="M691.8 291.9V177.4c0-2.1 1.7-3.8 3.8-3.8h12c2.1 0 3.8 1.7 3.8 3.8v114.5c0 2.1-1.7 3.8-3.8 3.8h-12c-2 0.1-3.8-1.6-3.8-3.8zM312.5 291.9V177.4c0-2.1 1.7-3.8 3.8-3.8h12c2.1 0 3.8 1.7 3.8 3.8v114.5c0 2.1-1.7 3.8-3.8 3.8h-12c-2 0.1-3.8-1.6-3.8-3.8z" fill="#44444B" p-id="11165"></path><path d="M335.3 894.4c-0.1-5.4-0.3-10.9-0.4-16.3v-0.2c1.6-21.8 2.6-43.8 2.2-65.6-0.3-15.9-1.3-32.7-4.9-48.3v-0.4c-2.4-103.2-4.9-359-7.5-462.2v-0.1c1.7-43 4.7-86.1-3.1-128.7v-0.1l-0.6-23.1c-0.6-25.6 66-85.4 94.7-85.4h192.6c28.8 0 95.4 59.8 94.7 85.4-0.2 7.9-0.4 15.8-0.6 23.6v0.2c-6.3 42.5-7.4 85.1-3.1 127.8v0.2c-2.6 103.2-4.8 358.9-7.5 462.1v0.2c-2.8 15.9-4.1 32-4.6 48.1-0.7 22.3 0.4 44.8 1.8 67.1v0.2c-0.1 5.2-0.3 10.4-0.4 15.6-0.1 3.3-0.6 6.5-1.7 9.6-7.7 22.6-39 35.4-62.3 42.1-35.1 10.1-75.8 13.8-112.6 13.9-36.8 0.1-77.4-3.5-112.5-13.5-23.4-6.7-54.7-19.4-62.6-42-1-3.4-1.6-6.8-1.6-10.2z" fill="#2E2422" p-id="11166"></path><path d="M337.3 894.4c-0.1-5.4-0.3-10.9-0.4-16.3 3.5-48.8 3.2-88.3-2.8-114.4-2.5-103.2-5-359-7.5-462.2 1.7-43 4.8-86.1-3.1-129.1l-0.6-23c-0.6-24.8 65.4-83.5 92.7-83.5h192.6c27.3 0 93.3 58.8 92.7 83.5-0.2 7.9-0.4 15.8-0.6 23.6-5.7 38.5-7.9 81.2-3.1 128.2-2.5 103.2-5 358.9-7.5 462.1-4.8 27.1-6.6 63.2-2.8 115.5-0.1 5.2-0.2 10.4-0.4 15.6-1.9 84.7-347.4 85.4-349.2 0z" fill="#F5B240" p-id="11167"></path><path d="M683.8 309.5c-37.4 30.9-26.5 94.9-26.5 138.9 2.3 11.8 21.5 25.3 22.3 19.3 1.4-53.9 2.8-104.3 4.2-158.2zM335.4 309.5c37.4 30.9 26.5 94.9 26.5 138.9-2.3 11.8-21.5 25.3-22.3 19.3-1.4-53.9-2.8-104.3-4.2-158.2z" fill="#000010" p-id="11168"></path><path d="M664.3 871.1c-0.2 13.8 7.6 1.6 7.3 14.1-0.1 5.6-16.7 17.8-16.8 23 0.4 36.5-286 40.3-285.6 0-0.1-5.2-16.6-17.4-16.8-23-0.3-12.5 7.5-0.3 7.3-14.1-1-71.8-6.5-295.4-11.9-362.1-0.7-9 7.1-18.8 18.2-18.2 85.8 21.2 206 19.3 291.8 0 11.2-0.4 19 9.2 18.2 18.2-5.2 66.7-10.8 290.3-11.7 362.1z" fill="#44444B" p-id="11169"></path><path d="M377 893.7c-2.5-113.1-14.7-322.3-19-380.2-0.6-8.9 6.9-13 16.5-10 80.9 24.8 214.2 21.7 275.1 0 9.4-3.4 17.1 1.2 16.5 10-4.2 57.9-16.4 267.1-19 380.2-42.3 11.7-87.8 18-135 18-47.4 0-92.8-6.4-135.1-18z" fill="#2C292F" p-id="11170"></path><path d="M388.2 886.1c40.2 10.3 81.9 15.5 123.8 15.5 41.9 0 83.6-5.1 123.8-15.5 1.2-42.8 4-85.3 8.7-128 3.4-30.9 7.8-214.4 10.1-245.3v-0.3c-0.3 0.1-0.6 0.2-0.8 0.2-22.3 8-48.5 12.2-72.3 14.8-29.6 3.2-60 4.1-89.7 3.1-39.8-1.3-83.4-6.1-121.1-17.6-0.3-0.1-0.8-0.2-1.3-0.3v0.2c2.2 31 6.7 214.5 10.1 245.3 4.7 42.6 7.6 85.1 8.7 127.9z" fill="#000010" p-id="11171"></path><path d="M360.5 278.4c-0.3-1.6 0.2-3.2 1.4-4.4 82.8-20.8 209.3-22 292.1 0.3 3.3 0.9 5.2 3.5 4.7 6.3-5.9 29.8-11.8 42.8-17.7 72.6-0.2 0.9-0.6 1.8-1.3 2.5-0.6 0.1-1.3 0-1.9-0.1-69.3-9.9-182.2-9.9-251.5 0-3.8 0.5-7.4-1.5-8-4.7-6-29.8-11.9-42.7-17.8-72.5z" fill="#000010" p-id="11172"></path><path d="M289.4 328.4c-1.6-3.7-2.2-7.8 0.4-11.4 3.1-4.4 10.2-6.5 15.7-7.9 7.5-1.9 15.2-3.2 22.6-5.3 2.7-0.8 5.4-1.6 7.9-2.7l1.9-0.8 0.5 1.7c1.5 4.8 3.1 9.5 4.6 14.3l0.4 1.4-1.7 0.4c-16.8 3.8-33.5 7.5-50.3 11.3l-1.5 0.3-0.5-1.3z" fill="#E6CC77" p-id="11173"></path><path d="M291 327.9c-7.9-19 23.3-16.5 45.7-25.6 1.5 4.8 3.1 9.5 4.6 14.3-16.8 3.8-33.6 7.6-50.3 11.3z" fill="#FAE7D7" p-id="11174"></path><path d="M331.6 320.3l-5.4-16.9 6.8-1.6 5.5 17z" fill="#E6CC77" p-id="11175"></path><path d="M332.8 318.6l-4.5-14.2 3.5-0.8 4.6 14.2z" fill="#EBF25A" p-id="11176"></path><path d="M734.6 328.4c1.6-3.7 2.2-7.8-0.4-11.4-3.1-4.4-10.2-6.5-15.7-7.9-7.5-1.9-15.2-3.2-22.6-5.3-2.7-0.8-5.4-1.6-7.9-2.7l-1.9-0.8-0.5 1.7c-1.5 4.8-3.1 9.5-4.6 14.3l-0.4 1.4 1.7 0.4c16.8 3.8 33.5 7.5 50.3 11.3l1.5 0.3 0.5-1.3z" fill="#E6CC77" p-id="11177"></path><path d="M733 327.9c7.9-19-23.3-16.5-45.7-25.6-1.5 4.8-3.1 9.5-4.6 14.3 16.8 3.8 33.6 7.6 50.3 11.3z" fill="#FAE7D7" p-id="11178"></path><path d="M692.4 320.3l5.4-16.9-6.8-1.6-5.5 17z" fill="#E6CC77" p-id="11179"></path><path d="M691.2 318.6l4.5-14.2-3.5-0.8-4.6 14.2z" fill="#DBD8B4" p-id="11180"></path><path d="M588.4 67.8H433.5v1h157v-1m-147.4 2.5h-1.9v0.9H582.8v-0.9h-1.9" fill="#000010" p-id="11181"></path><path d="M614.4 64.4C627 62 645 73.1 653.9 79.5c8.2 5.9 23.3 18.5 26.5 27.7l0.5 1.3-5.8 2.9-1-0.9c-16.9-16-37.1-29.5-59.8-38.8l-0.9-0.4-0.7-6.6 1.7-0.3z" fill="#E6CC77" p-id="11182"></path><path d="M614.7 66l0.4 4.1c7.2 3 33.7 13.8 60.4 39.1l3.1-1.5c-4.7-13.4-44.5-45.3-63.9-41.7z" fill="#FFFBDA" p-id="11183"></path><path d="M409.6 64.4C397 62 379 73.1 370.1 79.5c-8.2 5.9-23.3 18.5-26.5 27.7l-0.5 1.3 5.8 2.9 1-0.9c16.9-16 37.1-29.5 59.8-38.8l0.9-0.4 0.7-6.6-1.7-0.3z" fill="#E6CC77" p-id="11184"></path><path d="M409.3 66l-0.4 4.1c-7.2 3-33.7 13.8-60.4 39.1l-3.1-1.5c4.7-13.4 44.5-45.3 63.9-41.7z" fill="#FFFBDA" p-id="11185"></path><path d="M614.4 69.4c12.6-2.5 30.6 9.2 39.5 15.9 8.2 6.2 23.3 19.4 26.5 29.1l0.5 1.4-5.8 3.1-1-1c-16.9-16.9-37.1-31-59.8-40.7l-0.9-0.4-0.7-7 1.7-0.4z" fill="#E6CC77" p-id="11186"></path><path d="M614.7 71.1l0.4 4.4c7.2 3.1 33.7 14.5 60.4 41.1l3.1-1.6c-4.7-14.2-44.5-47.7-63.9-43.9z" fill="#FFFBDA" p-id="11187"></path><path d="M409.6 69.4c-12.6-2.5-30.6 9.2-39.5 15.9-8.2 6.2-23.3 19.4-26.5 29.1l-0.5 1.4 5.8 3.1 1-1c16.9-16.9 37.1-31 59.8-40.7l0.9-0.4 0.7-7-1.7-0.4z" fill="#E6CC77" p-id="11188"></path><path d="M409.3 71.1l-0.4 4.4c-7.2 3.1-33.7 14.5-60.4 41.1l-3.1-1.6c4.7-14.2 44.5-47.7 63.9-43.9z" fill="#FFFBDA" p-id="11189"></path><path d="M381.5 455.6c-4.6 7.7-9.2 13.2-13.8 20.9-0.4 0.7 1.1 1.4 3.7 1.6 65.1 18.8 216.3 19.1 281.4 0 1.8-0.5 4.1-0.9 3.7-1.6-4.6-7.7-9.2-13.3-13.9-21-0.5-0.8-3.2-1.4-6.3-1.2-54.2 16.6-194.4 17.5-248.5 0-2-0.6-5.9 0.5-6.3 1.3z" fill="#FFBB4C" p-id="11190"></path></svg>