<svg t="1701568203959" class="icon" viewBox="0 0 1024 1024" version="1.1" xmlns="http://www.w3.org/2000/svg" p-id="17475" width="200" height="200"><path d="M339.012267 139.127467c-3.003733-15.5648 5.051733-63.488 5.051733-63.488 0-45.192533 74.410667-65.9456 115.5072-65.9456h105.949867c41.096533 0 115.5072 20.753067 115.5072 65.9456 0 0 7.918933 47.9232 5.051733 63.488-2.8672 15.018667-6.144 98.577067-6.144 98.577066H345.2928c0 0.136533-3.140267-82.7392-6.280533-98.577066z" fill="#F8D437" p-id="17476"></path><path d="M564.565333 9.8304h-104.174933c-40.413867 0-116.3264 20.0704-116.3264 63.8976v6.007467c0-15.428267 5.461333-26.2144 14.882133-33.9968 17.339733-17.885867 48.196267-26.487467 83.421867-26.487467h140.0832c35.2256 0 66.082133 8.465067 83.421867 26.487467 9.4208 7.7824 14.882133 18.568533 14.882133 33.9968V73.728c0.136533-43.8272-75.776-63.8976-116.189867-63.8976z" fill="#353535" p-id="17477"></path><path d="M664.3712 83.421867c-1.501867-0.136533-2.594133-1.6384-2.594133-3.2768 0-6.417067-2.4576-12.561067-6.826667-17.2032-1.092267-1.2288-1.365333-3.003733-0.273067-4.232534 0.955733-1.2288 3.140267-1.092267 4.5056 0.4096 5.3248 5.7344 8.328533 13.243733 8.328534 21.026134-0.136533 1.911467-1.6384 3.413333-3.140267 3.2768zM360.584533 83.421867c1.501867-0.136533 2.594133-1.6384 2.594134-3.2768 0-6.417067 2.4576-12.561067 6.826666-17.2032 1.092267-1.2288 1.365333-3.003733 0.273067-4.232534-0.955733-1.2288-3.140267-1.092267-4.5056 0.4096-5.3248 5.7344-8.328533 13.243733-8.328533 21.026134 0.136533 1.911467 1.6384 3.413333 3.140266 3.2768z" fill="#F7941E" p-id="17478"></path><path d="M616.448 31.5392s-2.184533-2.184533 1.501867-2.594133c3.822933-0.4096 23.3472 0.8192 33.860266 15.837866 10.513067 15.018667 2.594133 15.428267 2.594134 15.428267l-37.956267-28.672zM408.644267 31.5392s2.184533-2.184533-1.501867-2.594133c-3.822933-0.4096-23.3472 0.8192-33.860267 15.837866-10.513067 15.018667-2.730667 15.428267-2.730666 15.428267l38.0928-28.672z" fill="#FFFFFF" p-id="17479"></path><path d="M343.790933 134.212267c-1.365333-15.428267 18.705067-60.484267 18.705067-60.484267 13.243733-42.461867 57.070933-45.738667 80.008533-45.738667h140.0832c22.801067 0 66.628267 3.2768 80.008534 45.738667 0 0 19.6608 45.056 18.705066 60.484267-0.955733 15.1552-12.834133 61.8496-12.834133 61.8496l-299.963733-2.321067c-0.273067 0-23.3472-43.4176-24.712534-59.528533z" fill="#F8D437" p-id="17480"></path><path d="M611.669333 133.393067c-30.993067 35.498667-167.389867 35.498667-198.382933 0C398.267733 116.189867 450.56 31.266133 450.56 31.266133h123.6992s52.292267 84.923733 37.410133 102.126934z" fill="#f9dd5f" p-id="17481"></path><path d="M360.721067 347.3408h302.967466s15.837867-11.8784 15.837867-17.6128c0-37.6832 0-69.768533 0.136533-91.886933 0-20.343467-11.4688-41.7792-11.4688-41.7792s-29.627733-20.206933-155.784533-19.6608c-85.060267-0.4096-132.983467 13.1072-154.282667 21.845333-10.103467 4.096-12.970667 23.620267-12.970666 39.458133 0 27.8528 0.136533 68.539733 0.136533 91.886934 0 13.243733 15.428267 17.749333 15.428267 17.749333z" fill="#F8D437" p-id="17482"></path><path d="M667.374933 145.681067s18.0224 3.822933 18.0224 18.8416c0 14.882133-19.114667 44.782933-19.114666 25.668266 0.136533-19.2512-0.682667-38.775467 1.092266-44.509866z" fill="#333836" p-id="17483"></path><path d="M729.770667 178.5856c-3.959467-5.188267-40.413867-16.110933-40.413867-16.110933-7.236267-2.321067-9.693867 3.822933-10.513067 9.147733l52.292267 15.291733c0.546133-2.321067 0.8192-5.461333-1.365333-8.328533z" fill="#FFB000" p-id="17484"></path><path d="M678.843733 171.6224c-0.546133 3.413333-0.4096 6.417067-0.4096 6.417067l51.336534 12.288s0.8192-1.365333 1.365333-3.413334l-52.292267-15.291733zM357.444267 145.681067s-18.0224 3.822933-18.0224 18.8416c0 14.882133 19.114667 44.782933 19.114666 25.668266 0-19.2512 0.682667-38.775467-1.092266-44.509866z" fill="#333836" p-id="17485"></path><path d="M295.185067 178.5856c3.959467-5.188267 40.413867-16.110933 40.413866-16.110933 7.236267-2.321067 9.693867 3.822933 10.513067 9.147733l-52.292267 15.291733c-0.682667-2.321067-0.8192-5.461333 1.365334-8.328533z" fill="#FFB000" p-id="17486"></path><path d="M345.975467 171.6224c0.546133 3.413333 0.4096 6.417067 0.4096 6.417067l-51.336534 12.288s-0.8192-1.365333-1.365333-3.413334l52.292267-15.291733z" fill="#333836" p-id="17487"></path><path d="M664.234667 329.728l15.428266-15.9744v-2.321067-73.728l0.955734-21.572266-16.384 15.018666s7.7824 47.104 0 98.577067zM360.721067 329.728c-7.918933-51.6096 0-98.577067 0-98.577067l-16.247467-13.1072c0.546133 11.605333 0.8192 19.6608 0.8192 19.6608 0 22.254933 0 52.565333 0.136533 75.912534v0.136533l15.291734 15.9744z" fill="#333836" p-id="17488"></path><path d="M360.721067 347.3408h303.5136v9.4208H360.721067z" fill="#353535" p-id="17489"></path><path d="M512.4096 178.312533c-48.7424 0-139.946667 14.336-139.946667 14.336s-9.966933-57.344-11.195733-67.857066l-0.273067-2.321067 2.184534-0.682667c51.336533-16.247467 101.853867-24.1664 154.4192-24.1664 44.100267 0 91.067733 5.597867 143.633066 16.930134l2.184534 0.546133v2.321067c0 29.354667-10.922667 75.639467-10.922667 75.639466s-91.3408-14.7456-140.0832-14.7456z" fill="#FFB000" p-id="17490"></path><path d="M424.209067 181.179733c59.938133-7.7824 121.105067-7.645867 181.0432 0.546134l12.014933-71.543467c-67.857067-9.0112-137.216-9.147733-205.2096-0.546133l12.151467 71.543466z" fill="#ffb819" p-id="17491"></path><path d="M704.1024 1010.346667H320.7168c-6.280533 0-11.332267-5.051733-11.332267-11.332267V368.093867c0-6.280533 5.051733-11.332267 11.332267-11.332267h383.3856c6.280533 0 11.332267 5.051733 11.332267 11.332267v630.920533c0 6.280533-5.051733 11.332267-11.332267 11.332267z" fill="#FFB000" p-id="17492"></path><path d="M337.783467 385.160533h349.3888v596.923734H337.783467z" fill="#F8D437" p-id="17493"></path><path d="M462.848 523.741867c-6.690133-81.5104-70.0416-105.813333-125.201067-111.274667v569.617067H529.749333c32.768-120.4224-39.048533-170.3936-77.550933-230.058667-42.5984-65.9456 22.9376-81.237333 10.6496-228.283733z" fill="#f9dd5f" p-id="17494"></path></svg>