<svg t="1701568289007" class="icon" viewBox="0 0 1024 1024" version="1.1" xmlns="http://www.w3.org/2000/svg" p-id="20227" width="200" height="200"><path d="M310.582996 719.241431l-8.757431 15.763375v131.011154l8.757431 15.763375v-162.537904z" fill="#B8FF01" p-id="20228"></path><path d="M734.442614 291.878841l-8.75743-3.152675V189.942354L712.724187 175.229872v-22.419022h4.203567a5.254458 5.254458 0 0 0 5.604755-5.254458v-23.82021c0-35.029721-36.781207-97.032326-126.106994-116.298672A420.356646 420.356646 0 0 0 511.653591 0.081269a420.356646 420.356646 0 0 0-85.12222 7.005944C337.55588 26.353559 300.424377 86.954976 300.424377 123.736182v24.170508a5.254458 5.254458 0 0 0 5.604755 5.254458H311.984184V175.229872l-12.960996 15.763374v97.73292l-8.75743 3.152675a15.763374 15.763374 0 0 0-13.311294 16.113671l1.751486 4.553864 18.565752-5.604755v14.362185l14.712482 15.413077v601.810599a5.955052 5.955052 0 0 0-7.706538 7.356241v11.559808c0 30.12556 4.203566 66.556469 207.375945 66.556469s207.375946-35.029721 207.375946-66.556469V945.883723a5.955052 5.955052 0 0 0-5.955053-5.955052v-58.149336l8.407133-15.763375V735.7054l-8.407133-15.763374V336.716883l12.960997-15.763374v-14.011888l18.565752 5.604755 1.751486-4.553864a15.763374 15.763374 0 0 0-11.910105-16.113671z" fill="#B8FF01" p-id="20229"></path><path d="M712.724187 492.248842h4.203567v34.329126h-4.203567zM310.582996 526.577968H306.379429v-34.329126h4.203567zM310.582996 703.12776H306.379429v-34.329126h4.203567zM712.724187 668.448337h4.203567v34.329126h-4.203567z" fill="#231F20" p-id="20230"></path><path d="M646.167718 35.110989a79.517466 79.517466 0 0 1 40.634476 70.059442v840.713292c0 10.508916-5.254458 35.029721-46.939825 50.442798 48.691312-16.463969 54.646364-41.685367 54.646364-52.194284V107.272214A80.568357 80.568357 0 0 0 646.167718 35.110989z" opacity=".2" p-id="20231"></path><path d="M649.320393 269.109523h-9.107727v542.610371a233.998533 233.998533 0 0 1-3.502972 38.882989c8.407133-6.30535 12.610699-41.33507 12.610699-47.64042zM662.28139 945.883723v-78.466574h-8.75743v79.167169c0 29.424965-10.859213 49.041609-52.544581 58.84993 50.442798-10.158619 61.302011-29.775262 61.302011-59.550525zM550.886878 35.110989c63.053497 39.933881 105.089162 169.543847 105.089162 222.088429H662.28139C662.28139 202.553054 624.098994 70.14071 550.886878 35.110989z" opacity=".2" p-id="20232"></path><path d="M336.504989 945.883723V105.170431a79.517466 79.517466 0 0 1 40.634476-70.059442 80.568357 80.568357 0 0 0-48.341015 72.161225v835.458834c0 10.859213 5.955052 35.029721 54.646364 52.194284-41.685367-16.463969-46.939826-40.284179-46.939825-49.041609z" fill="#FFFFFF" opacity=".6" p-id="20233"></path><path d="M361.37609 255.447932h5.604756c0-52.544581 42.385962-182.154547 105.089161-222.088429C399.208189 70.14071 361.37609 202.553054 361.37609 255.447932zM373.98679 269.109523v533.85294c0 5.604755 3.853269 39.583584 11.559807 44.838043a294.249652 294.249652 0 0 1-2.45208-35.029721V269.109523zM368.031737 945.883723v-79.167168h-7.005944v78.466574c0 30.475857 12.610699 50.0925 61.302011 59.550525-43.086556-9.808322-53.595472-29.424965-54.296067-58.849931z" fill="#FFFFFF" opacity=".6" p-id="20234"></path><path d="M344.561824 282.420816l27.67348 97.382623a2.45208 2.45208 0 0 0 2.45208 1.751487 2.101783 2.101783 0 0 0 2.101783-2.101784s7.356241-18.565752 135.214722-18.565752 134.864424 18.215455 134.864424 18.215455a2.45208 2.45208 0 0 0 2.101783 2.101783 2.45208 2.45208 0 0 0 2.45208 0l27.67348-97.382623a53.94577 53.94577 0 0 0 0-35.02972c-11.559808-38.88299-70.059441-49.041609-166.74147-49.041609S356.471929 208.157809 344.912122 245.289313a53.94577 53.94577 0 0 0-0.350298 37.131503zM365.579657 527.62886v-94.229948a1080.666878 1080.666878 0 0 0-36.781207-169.19355l-8.056835 81.969546v183.555735l37.4818 4.553864a6.655647 6.655647 0 0 0 7.356242-6.655647zM365.22936 638.322777V560.556797a6.655647 6.655647 0 0 0-5.955053-6.655646l-38.88299-4.553864v93.529354a218.585456 218.585456 0 0 0 2.452081 32.227343l9.458024 155.531959a2.802378 2.802378 0 0 0 5.254458 0l24.520805-151.328393a251.513393 251.513393 0 0 0 3.152675-40.984773zM657.727526 527.62886a6.655647 6.655647 0 0 0 7.356241 6.655647l37.481801-4.553864V346.174908l-8.056835-81.969546a1080.666878 1080.666878 0 0 0-36.781207 169.19355zM662.28139 553.901151a6.655647 6.655647 0 0 0-5.955053 6.655646v77.76598a251.863691 251.863691 0 0 0 5.955053 39.933881l24.520804 151.328393a2.802378 2.802378 0 0 0 5.254458 0l9.458025-155.531959a218.235159 218.235159 0 0 0 2.45208-32.227343v-92.478462zM646.868313 779.492551a2.45208 2.45208 0 0 0-2.101784 0 266.92647 266.92647 0 0 1-131.711749 29.775262 267.627065 267.627065 0 0 1-131.711749-29.775262 2.45208 2.45208 0 0 0-2.101783 0l-22.068724 85.822815c0 7.005944 11.910105 70.059441 154.481067 70.059441s153.780473-61.302011 154.481068-70.059441z" fill="#231F20" p-id="20235"></path></svg>