<svg t="1701568350926" class="icon" viewBox="0 0 1024 1024" version="1.1" xmlns="http://www.w3.org/2000/svg" p-id="21398" width="200" height="200"><path d="M513.05931 629.300966l134.903173 0 0-17.443311L379.268414 611.857655l0 17.355035 133.790896 0z" fill="#434448" p-id="21399"></path><path d="M368.039724 784.066207l9.25131 10.010483 0 6.885517s-6.920828-2.648276-6.920827 6.055724l0 43.767172s1.995034 19.667862 24.699586 33.491863c22.422069 13.541517 43.078621 26.482759 117.989517 29.166344l1.200552 0c74.928552-2.683586 95.461517-15.624828 117.901241-29.25462 22.704552-13.824 24.787862-33.491862 24.787863-33.491862l0-43.767173c0-8.721655-6.991448-6.038069-6.991449-6.038069l0.070621-6.903172 9.25131-10.010483 0-84.850759-9.76331-12.182069s0.353103-43.325793 0.706207-53.671724c0.335448-10.27531-16.154483-8.474483-16.154483-8.474482L393.339586 624.798897s-16.489931-1.800828-16.136827 8.474482c0.353103 10.257655 0.688552 53.671724 0.688551 53.671724l-9.76331 12.182069-0.088276 84.92138z" fill="#FF4317" p-id="21400"></path><path d="M606.790621 893.245793s29.519448-17.690483 30.296276-47.986759c0.776828-30.296276 0-80.013241-1.288828-94.596413-1.306483-14.600828-4.06069-38.329379-4.06069-38.32938s-0.264828 103.653517-0.264827 122.915311c0.088276 23.304828-2.153931 33.050483-24.681931 57.997241z m-61.793104-41.260138s35.133793 1.218207 44.438069-13.806345c9.25131-14.936276 27.453793-41.348414 27.453793-41.348413s-18.643862 38.311724-27.612689 46.609655c-8.986483 8.209655-30.472828 10.363586-44.279173 8.545103z" fill="#FF8C5F" p-id="21401"></path><path d="M623.104 744.871724s1.730207-111.351172 0-114.017103c-1.730207-2.683586-4.148966-5.349517-5.261241-5.702621-1.218207-0.353103 7.238621-1.377103 8.545103 12.782345 1.377103 14.141793 0 124.468966 0 124.468965l-3.283862-17.531586z" fill="#FF8C5F" p-id="21402"></path><path d="M394.628414 888.32c22.439724 14.671448 43.078621 28.654345 118.254345 31.602759l0.865103 0c75.175724-2.860138 95.814621-16.843034 118.254345-31.602759 22.704552-14.918621 24.770207-36.069517 24.770207-36.069517l0-47.209931c0-5.278897-2.153931-6.744276-4.06069-6.920828l-1.288827 0a10.028138 10.028138 0 0 0-1.553656 0.353104l0 47.739586s-1.995034 21.221517-24.699586 36.069517c-21.751172 14.247724-41.842759 27.895172-111.757241 31.337931-69.914483-3.460414-89.953103-17.001931-111.792552-31.337931-22.704552-14.936276-24.770207-36.069517-24.770207-36.069517l0-48.09269 0 0.353104s-0.688552-0.264828-1.553655-0.353104l-1.288828 0c-1.906759 0.264828-4.06069 1.730207-4.060689 6.991448L369.946483 852.338759c-0.088276-0.176552 1.995034 21.062621 24.681931 35.981241z" fill="#242323" p-id="21403"></path><path d="M420.440276 893.245793s-29.519448-17.690483-30.296276-47.986759c-0.776828-30.296276 0-80.013241 1.288828-94.596413 1.306483-14.600828 4.06069-38.329379 4.060689-38.32938s0.264828 103.653517 0.264828 122.915311c-0.088276 23.304828 2.242207 33.050483 24.681931 57.997241z m61.793103-41.260138s-35.133793 1.218207-44.438069-13.806345c-9.233655-14.936276-27.453793-41.348414-27.453793-41.348413s18.643862 38.311724 27.61269 46.609655c8.986483 8.209655 30.472828 10.363586 44.279172 8.545103z" fill="#FF8C5F" p-id="21404"></path><path d="M405.150897 791.216552c5.967448 9.410207 15.801379 14.936276 32.379586 21.150896 27.542069 7.238621 68.096 7.68 75.528827 7.768276 0 0 46.344828 0.264828 76.72938-7.768276 16.578207-6.214621 26.412138-11.828966 32.361931-21.150896 5.967448-9.410207 8.986483-14.830345 6.302896-41.419035-2.665931-26.58869-6.302897-59.215448-6.302896-59.215448s-6.814897 3.707586-20.285793 4.660965c-12.76469 0.953379-81.125517 3.019034-88.205242 3.283863-6.903172-0.353103-75.528828-2.330483-88.205241-3.283863-13.470897-1.041655-20.303448-4.660966-20.303448-4.660965s-3.61931 32.626759-6.285242 59.215448c-2.771862 26.65931 0.247172 32.008828 6.302897 41.419035z" fill="#202016" p-id="21405"></path><path d="M382.640552 738.727724l0-86.475034s1.024-10.345931 11.475862-10.345931c10.434207 0 3.019034 34.868966 3.707586 46.609655 0.706207 11.723034-4.996414 48.322207-4.996414 48.322207l-10.187034 1.906758z" fill="#2E3C42" p-id="21406"></path><path d="M389.790897 771.372138l-10.522483-9.833931s-32.80331-15.624828-33.580138-17.867035c-0.776828-2.259862 0-7.856552 0-7.856551l29.519448 8.545103s5.014069-1.465379 7.415173-5.614345c2.436414-4.237241 10.20469-2.683586 10.204689-2.683586l-3.036689 35.310345z m-12.340966-104.448l-3.001379 0 0-24.081655 3.001379 0 0 24.081655z" fill="#201E1E" p-id="21407"></path><path d="M405.150897 744.871724s-1.712552-111.351172 0-114.017103c1.730207-2.683586 4.148966-5.349517 5.278896-5.702621 1.200552-0.353103-7.238621-1.377103-8.545103 12.782345-1.377103 14.141793 0 124.468966 0 124.468965l3.283862-17.531586z" fill="#FF8C5F" p-id="21408"></path><path d="M415.77931 796.742621c6.126345 4.325517 21.927724 10.963862 46.433104 13.470896 11.652414 1.977379 50.493793 2.665931 50.493793 2.665931l1.818483 0s38.753103-0.688552 50.493793-2.665931c24.505379-2.507034 40.306759-9.145379 46.433103-13.470896 6.126345-4.307862 17.355034-12.76469 15.271724-35.822345-1.977379-23.04-6.708966-67.319172-6.708965-67.319173s-12.958897 5.261241-31.179035 5.261242c-17.266759 0-70.002759 2.930759-75.264 3.195586-5.172966-0.264828-57.997241-3.177931-75.264-3.177931-18.131862 0-31.073103-5.278897-31.073103-5.278897s-4.749241 44.279172-6.726621 67.319173c-1.995034 23.128276 9.233655 31.514483 15.271724 35.84z" fill="#3D4852" p-id="21409"></path><path d="M358.806069 160.785655l0 72.580414c0 6.302897 4.325517 4.837517 4.325517 4.837517l4.237242 0 146.114206 0.176552 146.996966-0.176552 4.237241 0s4.307862 1.377103 4.307862-4.837517l0-72.580414s1.377103-12.535172-13.38262-12.535172L372.18869 148.250483c-14.759724-0.070621-13.382621 12.535172-13.382621 12.535172z" fill="#221F20" p-id="21410"></path><path d="M371.147034 613.323034l284.248276 0c5.349517 0 9.657379-3.707586 9.65738-8.368551l0-430.185931c0-4.660966-4.307862-8.368552-9.65738-8.368552l-284.248276 0c-5.261241 0-9.569103 3.707586-9.569103 8.368552L361.577931 604.954483c0 4.660966 4.307862 8.368552 9.569103 8.368551z" fill="#2E3C42" p-id="21411"></path><path d="M516.855172 606.843586l134.567725 0c4.237241 0 7.591724-1.536 7.591724-3.442758l0-424.748138c0-1.906759-3.460414-3.460414-7.591724-3.460414l-134.567725 0 0 431.668965z m156.142345-173.214896l0-92.707311-7.856551-12.182069 0 115.235311 7.856551-10.345931z" fill="#C5E9EF" p-id="21412"></path><path d="M528.331034 606.843586l-151.304827 0c-4.749241 0-8.545103-1.536-8.545104-3.442758l0-424.748138c0-1.906759 3.795862-3.460414 8.545104-3.460414l151.304827 0 0 431.668965z m-175.65131-173.214896l0-92.707311 8.898207-12.182069 0 115.235311-8.898207-10.345931z" fill="#C5E9EF" p-id="21413"></path><path d="M626.65269 191.947034c0-2.08331 1.712552-3.795862 3.795862-3.795862a3.831172 3.831172 0 0 1 3.795862 3.795862L634.244414 592.101517a3.778207 3.778207 0 0 1-3.795862 3.795862c-2.08331 0-3.795862-1.730207-3.795862-3.795862L626.65269 191.947034z m-19.350069 0c0-2.08331 1.730207-3.795862 3.813517-3.795862a3.831172 3.831172 0 0 1 3.795862 3.795862L614.912 592.101517a3.778207 3.778207 0 0 1-3.795862 3.795862c-2.08331 0-3.813517-1.730207-3.813517-3.795862L607.302621 191.947034z m-20.974345 0c0-2.08331 1.730207-3.795862 3.813517-3.795862a3.831172 3.831172 0 0 1 3.795862 3.795862L593.937655 592.101517a3.778207 3.778207 0 0 1-3.795862 3.795862c-2.08331 0-3.813517-1.730207-3.813517-3.795862L586.328276 191.947034z m-18.97931 0c0-2.08331 1.730207-3.795862 3.795862-3.795862a3.831172 3.831172 0 0 1 3.795862 3.795862L574.94069 592.101517a3.778207 3.778207 0 0 1-3.795862 3.795862c-2.065655 0-3.795862-1.730207-3.795862-3.795862L567.348966 191.947034z m-22.775173 0c0-2.08331 1.712552-3.795862 3.778207-3.795862a3.831172 3.831172 0 0 1 3.795862 3.795862L552.147862 592.101517a3.778207 3.778207 0 0 1-3.795862 3.795862c-2.065655 0-3.795862-1.730207-3.795862-3.795862L544.556138 191.947034z m-20.48 0.088276c0-2.171586 1.730207-3.795862 3.813517-3.795862a3.831172 3.831172 0 0 1 3.795862 3.795862L531.703172 592.189793a3.778207 3.778207 0 0 1-3.795862 3.795862c-2.08331 0-3.795862-1.730207-3.795862-3.795862l0-400.154483z m-127.117241-0.088276a3.831172 3.831172 0 0 0-3.813518-3.795862 3.831172 3.831172 0 0 0-3.795862 3.795862L389.367172 592.101517a3.778207 3.778207 0 0 0 3.795862 3.795862c2.065655 0 3.795862-1.730207 3.795863-3.795862L396.958897 191.947034z m24.840827 0a3.831172 3.831172 0 0 0-3.795862-3.795862 3.831172 3.831172 0 0 0-3.795862 3.795862L414.225655 592.101517a3.778207 3.778207 0 0 0 3.795862 3.795862c2.065655 0 3.795862-1.730207 3.795862-3.795862L421.817379 191.947034z m21.327449 0a3.831172 3.831172 0 0 0-3.795862-3.795862 3.831172 3.831172 0 0 0-3.795863 3.795862L435.553103 592.101517a3.778207 3.778207 0 0 0 3.795863 3.795862c2.065655 0 3.795862-1.730207 3.795862-3.795862L443.144828 191.947034z m22.704551 0a3.831172 3.831172 0 0 0-3.813517-3.795862 3.831172 3.831172 0 0 0-3.795862 3.795862L458.24 592.101517a3.778207 3.778207 0 0 0 3.795862 3.795862c2.08331 0 3.813517-1.730207 3.813517-3.795862L465.849379 191.947034z m24.593655 0.088276a3.778207 3.778207 0 0 0-3.795862-3.795862 3.831172 3.831172 0 0 0-3.795862 3.795862L482.85131 592.189793a3.778207 3.778207 0 0 0 3.795862 3.795862c2.065655 0 3.795862-1.730207 3.795862-3.795862l0-400.154483z m20.797794 0a3.778207 3.778207 0 0 0-3.795862-3.795862 3.831172 3.831172 0 0 0-3.795863 3.795862L503.649103 592.189793a3.778207 3.778207 0 0 0 3.795863 3.795862c2.065655 0 3.795862-1.730207 3.795862-3.795862l0-400.154483z" fill="#566D7C" p-id="21414"></path><path d="M514.048 181.76l-0.812138 0 0-6.656 0.812138 0z" fill="#FFE38A" p-id="21415"></path><path d="M644.519724 738.833655l0-86.05131s-1.05931-10.27531-11.405241-10.275311c-10.434207 0-3.10731 34.692414-3.707586 46.344828-0.706207 11.74069 5.014069 48.075034 5.014069 48.075035l10.098758 1.906758z" fill="#2E3C42" p-id="21416"></path><path d="M637.351724 771.460414l10.522483-9.851586s32.80331-15.607172 33.580138-17.867035c0.776828-2.242207 0-7.838897 0-7.838896l-29.519448 8.545103s-4.996414-1.483034-7.415173-5.614345c-2.418759-4.237241-10.187034-2.683586-10.187034-2.683586l3.001379 35.310345z m15.448276-104.518621l-3.019034 0 0-24.09931 3.001379 0 0 24.081655z" fill="#201E1E" p-id="21417"></path><path d="M409.476414 791.057655c2.065655 2.153931 4.325517 4.06069 6.814896 5.684966 6.126345 4.325517 21.927724 10.963862 46.433104 13.470896 11.652414 1.977379 50.493793 2.665931 50.493793 2.665931l1.818483 0s38.753103-0.688552 50.493793-2.665931c24.523034-2.507034 40.306759-9.145379 46.433103-13.470896 6.144-4.307862 17.355034-12.76469 15.28938-35.822345-1.041655-11.74069-2.771862-28.901517-4.237242-42.97269-111.598345 68.872828-182.289655 75.175724-213.53931 73.092414z" fill="#303F43" p-id="21418"></path></svg>