<svg t="1701568649127" class="icon" viewBox="0 0 1024 1024" version="1.1" xmlns="http://www.w3.org/2000/svg" p-id="41713" width="200" height="200"><path d="M366.8 509.5l-47.6-208.8 1.9-2.3c33.2-41.7 109.3-68.7 193.7-68.7 81.9 0 151.7 25.6 186.7 68.6l1.9 2.3-48.6 208.8-6.3-1.9c-45.7-13.8-92-20.7-137.7-20.7-45.7 0-92 7-137.7 20.7 0.1 0.1-6.3 2-6.3 2z m144-35c44.8 0 90.2 6.5 135 19.4l44.2-190c-33.3-38.7-98.5-61.8-175.2-61.8-79.2 0-150.2 24.1-182.2 61.7l43.3 190.1c44.8-12.9 90.1-19.4 134.9-19.4z" fill="#FF1016" p-id="41714"></path><path d="M378.7 479.9c-9.3 0-12.9-12.1-30.6-87.7-6-25.4-12.7-54.1-20.3-83.2l-1-3.7 2.8-2.5c34.6-30.5 105.5-49.5 185.1-49.5 77.5 0 142.8 18 179 49.5l2.9 2.5-1 3.7c-9.3 34.9-16.7 65.5-22.7 90.1-15.8 65-19.9 80.3-30.6 80.4-1.3 0-2.6-0.3-3.8-0.9-40.3-7.4-81.9-11.1-123.6-11.1-43.7 0-88.9 4.1-134.2 12.2-0.6 0.1-1.3 0.2-2 0.2z m-38-170.2c7.2 28 13.7 55.4 19.4 79.8 8 33.8 16.2 68.8 20.7 77.7 45.3-7.9 90.5-12 134.2-12 42.6 0 85.1 3.8 126.3 11.4 4.5-7.3 11.6-36.7 19.8-70.3 5.8-23.7 12.9-53.1 21.8-86.5-34.3-27.6-96.6-44-168-44-73.5-0.1-141.1 17.1-174.2 43.9z" fill="#FF1016" p-id="41715"></path><path d="M510.8 909.2c-28.3 0-121.5-1.4-132.3-19.3-1.5-2.5-1.9-5.5-0.9-8.3 10.7-160.3 6.6-287.7-12.2-378.7l-1.1-5.5 5.4-1.6c46-13.9 93-20.9 139.9-20.9 46.9 0 94.8 7 142.5 20.9l5.2 1.5-0.8 5.3c-17.2 112.9-20.6 237.2-10.4 380v1c-2.1 21.1-74.7 25.6-135.3 25.6z m-121.1-25.1c7.4 5.4 48.7 12.7 121 12.7 76.5 0 118-8.6 122.8-14.6-10-140.9-6.8-264.1 9.8-376.1-44.9-12.6-89.9-19-133.9-19-43.8 0-87.9 6.3-131 18.8 18.1 91.9 21.9 218.8 11.2 377.4 0.2 0.1 0.1 0.8 0.1 0.8z" fill="#FF1016" p-id="41716"></path><path d="M511.3 1023.9l-139.4-7.1-0.8-0.3c-34.6-12.2-51.9-34.5-51.4-66.3l-16.6-64.3-14-271.1-2.3-199.5 3.7-1.7c8.6-3.9 12.4-7.9 13.1-10.3 0.2-0.7 0.2-1.5-0.7-2.8l-3.6-5.2 13.1-8.7-0.4-4.2-2.3-2.9-8.1 5.4-15.2-4-0.9-71.6 5.4-149.1C310.6 59.7 383.2 7.5 512.7 0.4h0.8c126.2 9.7 199.3 63.2 217.3 158.9l0.1 0.8 7 146.9-1.1 78.5-7-1.1c-2.4-0.3-4.8-0.4-7.1-0.2l-1.6 0.1-7.2-3.4-3.2 6.6 5.5 4.2 3.6 10.7c4.3 3.6 8.9 6.9 13.7 9.8l3 1.8-2.9 200.2-14.8 270.2-0.1 0.5-15.7 66.6c3.5 27.4-14 49.2-52.1 64.9l-1 0.4-1.1 0.1c0.1-0.1-137.5 7-137.5 7z m-136.9-19.3l137 6.9 135.9-6.9c32.5-13.6 46.7-30.7 43.4-52.4l-0.2-1.2 15.9-68 14.8-268.8 2.7-192.9c-4.8-3.1-9.4-6.5-13.7-10.3l-1.3-1.1-3.4-10.3-10.4-7.9 12.7-26.7 15.4 7.2h1.4l1-64.6-7-146.1C701.4 70.8 634.2 22.2 513 12.8c-122.6 6.8-191.3 55.6-209.9 149.3l-5.2 147.4 0.8 62 0.7 0.2 12.9-8.6 11.7 14.6 1.5 15.2-9.8 6.4c0.5 2.4 0.5 4.9-0.2 7.3-1.7 6.2-7.2 11.8-16.2 16.5l2.2 191.3 14 270.3 16.7 64.1v0.9c-0.8 26.7 12.6 44.2 42.2 54.9z" fill="#FF1016" p-id="41717"></path><path d="M339.9 858.7l-2.7-0.6c-10-2-12.6-15.7-13.9-28.8L303 404.8l0.4-1.1c0.4-1.2 0.2-1.9 0-2.3l-0.6-1.2-0.4-7 10-6.5-0.4-4.1-2.3-2.9-7.7 5.2-3.3-70 12.1-2c22.8 78.5 38.9 152.1 49.2 224.8l0.1 0.6 10.5 224.5-0.1 0.6C362.7 819 354 848 342.1 857l-2.2 1.7z m-24.5-452.3l20.1 422c0.7 7.6 1.8 12 2.7 14.5 5.7-8.8 12.9-30.4 19.9-81l-10.5-223.1c-6.6-46.9-15.7-94.1-27.4-142.8l-4.7 3.1c0.6 2.5 0.6 5-0.1 7.3z m368.3 455.1l-3.2-2.8c-13.8-12.1-22.3-42.9-26.6-96.9v-0.6l1.8-107.5v-33.6c7.6-91.3 24.9-188.3 54.4-305.4l12.1 1.7-2 68.2-6.5-3.3-3.1 6.5 5.5 4.2 3.6 11.1v1.1l-6.2 218.3c-6.5 176.4-12.3 229.6-26 237l-3.8 2z m-17.5-100.4c3.9 49.1 11.2 72.1 17.8 82.6 10-28.7 14.8-157.2 17.1-221.6l6.1-217.2-1.8-5.4-2.4-1.8c-18 82-29.4 154.3-35.1 223.2v33c0-0.1-1.7 107.2-1.7 107.2z" fill="#FF1016" p-id="41718"></path><path d="M365 646.2l-51.3-22.1v-31.4l50 24.4 1.3 29.1z m-38.9-30.1l25.7 11.1-0.1-2.1-25.6-12.5v3.5z" fill="#FF1016" p-id="41719"></path><path d="M365.8 663.7l-51.9-20-0.8-32.8 51.5 23.5 1.2 29.3zM326 635.1l26.7 10.3-0.1-2.9-26.7-12.2 0.1 4.8z m330.4 12.1v-29l56.8-22-1.5 29.2c0-0.1-55.3 21.8-55.3 21.8z m12.3-20.6v2.5l31-12.2 0.1-2.3-31.1 12z" fill="#FF1016" p-id="41720"></path><path d="M663.7 660.3l-2.3-6.5h-5.8v-19.7l56.8-21 0.4 29.8c0 0.1-49.1 17.4-49.1 17.4z m4.2-17.6v3l32.4-11.4-0.1-3.5c0.1 0-32.3 11.9-32.3 11.9zM372 990.6l-3.8-1.5c-17.4-6.8-41.1-70.5-41.1-70.5l54.3-90.9 11.5 3.6-3.4 52.1c0.8 0.9 2.6 2 6 3l7.8 2.3-37.9 60.7-4.5 18.1c0.6 0.4 17.2 16.9 19.3 15l-1.9 1.9c-3.1 2.9-6.3 6.2-6.3 6.2z m-34-70.9c3.8 14.4 6.9 24.8 11.5 33.9l1.1-8.6 31.6-50.7c-3.7-2.2-6.2-5.1-7.3-8.6l-0.4-1.1 1.9-29.4c0.1-0.1-38.4 64.5-38.4 64.5z" fill="#FF1016" p-id="41721"></path><path d="M400.5 1018.2l-28.5-1.4-0.9-0.3c-32.7-11.6-49.9-35.5-51.3-71.2V944l16.1-41.1 4.7 18.5c5.9 23 12.9 44.7 33.1 56.8l26.7 16.8c-0.1 0 0.1 23.2 0.1 23.2z m-26.1-13.6l13.7 0.7v-3.4l-20.8-13.1c-18.3-11-27.4-28.1-33.5-46.5l-1.5 3.8c1.3 29.5 15.2 48.7 42.1 58.5z m281.7-15.3l-12.2-9.1 12.6-15.7v-12.7L623 889.5l10.5-9.2-3-48.6 11.5-3.5 49.5 85.5-0.1 1.8c-1.3 39.4-10.5 62.5-32.7 70.9l-2.6 2.9z m-17.6-97l30.2 56.4v12.2c6.1-10.2 9.5-25 10.3-44.1L644.4 857l1.7 28.6-7.6 6.7z" fill="#FF1016" p-id="41722"></path><path d="M624.1 1018l-1-22 19.2-12.4 4.7-6.3c21.5-6.8 32-27 32.2-61.9l11.9-2.1 10.9 29.1-0.3 28.4-0.3 0.9c-4.6 14.6-20 29.2-47.2 44.6l-1.3 0.7c0.1-0.2-28.8 1-28.8 1z m11.6-15.5l0.1 2.7 13.7-0.6c22.6-13 36-25.1 39.9-36l0.2-24.2-0.8-2.1c-4.7 22.3-15.6 37.3-32.7 44.6l0.6 2-21 13.6zM245.1 435.6l-1.3-5c-7.2-26.6 7.1-45.9 44.9-60.7l1.9-0.7 8.8 2.4 12.9-8.6 11.7 14.6 1.5 15.2-9.8 6.4c0.7 3.3 0.3 6.7-1.2 9.9-6.2 13.2-30.8 23.2-64.2 26l-5.2 0.5z m46.2-53.4c-33.4 13.5-38.4 27.5-36.7 40.1 27.5-3.1 45.4-11.5 48.6-18.4 0.5-1.1 0.6-2-0.4-3.5l-3.6-5.2 13.2-8.7-0.4-4.2-2.3-2.9-8.1 5.4c0 0.1-10.3-2.6-10.3-2.6z" fill="#FF1016" p-id="41723"></path><path d="M279.7 396.6l0.7-0.3c8.4-3.8 17.9-4.5 27.7-2.1l4.3 1 1.4 15.3-1.2 1.8c-9.5 14.4-31.3 19.1-61 21.8l28.1-37.5z m6.5 10.7l-14.8 12c13.1-2.2 24.2-5.7 29.6-12.1l-0.2-1.8c-5.1-0.7-10-0.1-14.6 1.9z m480 28.8c-16.8 0-37.2-9.2-56-25.2l-1.3-1.1-3.4-10.3-10.4-7.9 12.7-26.7 15.4 7.1c17.9-1.1 39.8 10.9 51.4 27.7 7.4 10.8 9.4 22 5.7 31.5l-1.2 3-3.1 0.8c-3.2 0.7-6.5 1.1-9.8 1.1z m-46.7-33.5c16 13.3 33.3 21.1 46.7 21.1 1.2 0 2.3-0.1 3.4-0.2 0.9-6.7-2.7-13.3-5.2-16.9-9.4-13.7-27.7-23.7-41.7-22.3l-1.7 0.2-7.3-3.4-3.2 6.6 5.5 4.2c0 0.1 3.5 10.7 3.5 10.7z" fill="#FF1016" p-id="41724"></path><path d="M769.7 432c-13.7-17-45.5-30.2-68.5-36.4l-7.1-1.9 12.7-26.9 4.5 0.7c4.1 0.6 6.6 3.3 8.3 5.2l0.7 0.7c2.4-0.3 4.8-0.4 7.3-0.4 15.5 0 29.6 5.8 39.5 16.4 9.7 10.3 14.7 24.6 13.7 39.2l-11.1 3.4z m-58.2-46.2c18.6 5.7 39.6 14.7 54.9 26.3-1.7-5.3-4.6-10.1-8.4-14.2-9-9.6-22.5-14-37.4-12l-1.2 0.1c-2.9 0-5-1.2-6.6-2.6l-1.3 2.4z m-392.1-84.9c-5.3-62.7 0.1-124 15.9-182.3l11.9 3.2c-15.5 56.9-20.7 116.8-15.5 178l-12.3 1.1z m381.3-3.1l-12.2-1.9c7.3-47.4 2.8-107-13.3-177.3l12-2.8c16.6 71.9 21.1 133.1 13.5 182z" fill="#FF1016" p-id="41725"></path><path d="M307.8 139.5l3.6-25 0.4-0.8c21.7-46.6 46.9-70.7 79.3-75.8l9-1.4-2 8.8c-5.2 23.4-47.8 88.9-82.2 93.2l-8.1 1z m15.6-21.4l-0.8 5.7c22.6-10.3 49.8-48.6 59.9-71.1-23 7.7-42 28.9-59.1 65.4z m379.2 20.5c-0.5 0-1.1 0-1.6-0.1l-1.1-0.1-1-0.5c-20.8-9.8-68.8-74.1-72.3-92.9l-1.9-10.5 10.1 3.6c31.6 11.3 57 36 77.7 75.6l0.3 0.6c2.2 5.5 4.6 13.4 0.7 19.2-1.7 2.4-4.9 5.1-10.9 5.1z m-58-82.5C657.8 79 689 118.5 703 126.3h0.1c0-0.9-0.2-3-1.8-7-15.9-30.4-34.5-51.1-56.7-63.2zM521.9 1006c-49.6 0-103.6-4.2-146.4-12.6l2.4-12.1c94.9 18.8 231.8 14.7 268.6-2.2l5.1 11.2c-22.7 10.4-73.5 15.7-129.7 15.7z m-16-130.5c-41 0-81.9-4.5-122-13.4l2.7-12.1c83.1 18.4 167.5 17.5 251-2.8l2.9 12c-44.7 10.9-89.7 16.3-134.6 16.3z" fill="#FF1016" p-id="41726"></path></svg>