<svg t="1701568718776" class="icon" viewBox="0 0 1024 1024" version="1.1" xmlns="http://www.w3.org/2000/svg" p-id="44413" width="200" height="200"><path d="M262.144 352.256c3.072 8.192 19.456 8.192 34.816 1.024 2.048-1.024 3.072-2.048 5.12-2.048v289.792c0 24.576 5.12 141.312 5.12 141.312s8.192 64.512 11.264 95.232 9.216 64.512 40.96 81.92S512 986.112 512 986.112s120.832-8.192 152.576-25.6c31.744-17.408 36.864-51.2 40.96-81.92 4.096-30.72 11.264-95.232 11.264-95.232s5.12-117.76 5.12-141.312V352.256c2.048 1.024 3.072 2.048 5.12 2.048 15.36 7.168 31.744 6.144 34.816-1.024 3.072-8.192-6.144-19.456-22.528-26.624-6.144-3.072-12.288-4.096-17.408-5.12v-99.328s6.144-96.256-45.056-135.168c-49.152-36.864-67.584-45.056-101.376-48.128H448.512c-33.792 3.072-53.248 11.264-101.376 48.128-51.2 38.912-45.056 135.168-45.056 135.168v99.328c-5.12 0-11.264 2.048-17.408 5.12-16.384 6.144-26.624 18.432-22.528 25.6z m257.024 556.032h-14.336s-101.376 0-145.408-29.696l6.144-129.024s49.152 22.528 139.264 19.456h14.336c89.088 3.072 139.264-19.456 139.264-19.456l6.144 129.024c-44.032 29.696-145.408 29.696-145.408 29.696zM651.264 97.28c5.12-5.12 17.408 0 28.672 11.264 11.264 11.264 16.384 23.552 11.264 28.672s-17.408 0-28.672-11.264c-10.24-11.264-15.36-23.552-11.264-28.672z m-155.648 122.88h32.768s39.936-3.072 103.424 17.408c64.512 19.456 57.344 61.44 57.344 61.44l-20.48 100.352c-47.104-17.408-148.48-17.408-148.48-17.408h-14.336s-102.4 0-148.48 17.408l-20.48-100.352s-7.168-41.984 57.344-61.44 101.376-17.408 101.376-17.408zM340.992 108.544c11.264-11.264 23.552-16.384 28.672-11.264s0 17.408-11.264 28.672c-11.264 11.264-23.552 16.384-28.672 11.264-4.096-5.12 1.024-17.408 11.264-28.672z" p-id="44414"></path></svg>